<svg id="quota" xmlns="http://www.w3.org/2000/svg" width="18" height="18" viewBox="0 0 18 18">
  <g id="Group_21" data-name="Group 21">
    <g id="Group_20" data-name="Group 20">
      <g id="Group_19" data-name="Group 19">
        <g id="Group_18" data-name="Group 18">
          <g id="Group_17" data-name="Group 17">
            <g id="Group_16" data-name="Group 16">
              <g id="Group_15" data-name="Group 15">
                <g id="Group_14" data-name="Group 14">
                  <path id="Path_16" data-name="Path 16" d="M9,0A9,9,0,1,1,0,9,9,9,0,0,1,9,0ZM9,1.35A7.65,7.65,0,1,0,16.65,9,7.65,7.65,0,0,0,9,1.35Z" fill="#ed2324"/>
                  <path id="Path_17" data-name="Path 17" d="M3.6,7.875H9.45a.675.675,0,0,1,0,1.35H3.6a.675.675,0,0,1,0-1.35Z" transform="translate(-2.025 15.075) rotate(-90)" fill="#ed2324"/>
                  <rect id="Rectangle_1" data-name="Rectangle 1" width="4.95" height="1.35" rx="0.675" transform="translate(8.1 12.15) rotate(-90)" fill="#ed2324"/>
                  <rect id="Rectangle_2" data-name="Rectangle 2" width="3.15" height="1.35" rx="0.675" transform="translate(10.35 12.15) rotate(-90)" fill="#ed2324"/>
                </g>
              </g>
            </g>
          </g>
        </g>
      </g>
    </g>
  </g>
</svg>
