<svg xmlns="http://www.w3.org/2000/svg" width="45" height="45" viewBox="0 0 45 45">
    <g fill="none" fill-rule="evenodd" transform="translate(-3 -3)">
        <circle cx="25.131" cy="25.131" r="22.131" fill="#F6F6F6"/>
        <g>
            <path d="M0 0H20V20H0z" transform="translate(15.5 15)"/>
            <path fill="#211E20" fill-rule="nonzero" d="M18.029 18c.545 0 1.01-.2 1.394-.599.385-.399.577-.87.577-1.413V4.012c0-.543-.192-1.014-.577-1.413-.385-.4-.85-.599-1.394-.599H1.97c-.545 0-1.01.2-1.394.599C.192 2.998 0 3.469 0 4.012v11.976c0 .543.192 1.014.577 1.413.385.4.85.599 1.394.599H18.03z" transform="translate(15.5 15)"/>
            <path fill="#FFF" fill-rule="nonzero" d="M2.126 5.514c.249-.448.792-.63 1.254-.439l.106.05 6.459 3.588 6.459-3.587c.448-.25 1.005-.117 1.297.29l.063.098c.249.449.117 1.006-.29 1.298l-.099.062-6.945 3.858c-.264.147-.578.165-.855.055l-.116-.055-6.945-3.858c-.482-.268-.656-.877-.388-1.36z" transform="translate(15.5 15)"/>
        </g>
    </g>
</svg>
