<svg id="Desktop---General-Product" xmlns="http://www.w3.org/2000/svg" width="18" height="18" viewBox="0 0 18 18">
  <g id="Personal_product_package" data-name="Personal/product/package" transform="translate(-1264 -4273)">
    <g id="OPENING" transform="translate(0 3486)">
      <g id="Group-2-Copy-5" transform="translate(1030 78)">
        <g id="Group-8">
          <g id="Group-40">
            <g id="Group-11" transform="translate(16 679)">
              <g id="icon_package_info" data-name="icon/package/info" transform="translate(218 30)">
                <g id="Group-6" opacity="0">
                  <rect id="Rectangle" width="17.5" height="17.5" rx="8.75" transform="translate(0.25 0.25)" fill="none" stroke="#979797" stroke-width="0.5" opacity="0.289"/>
                  <rect id="Rectangle-2" data-name="Rectangle" width="12.1" height="17.5" rx="0.9" transform="translate(2.95 0.25)" fill="#d8d8d8" stroke="#979797" stroke-width="0.5" opacity="0.39"/>
                  <rect id="Rectangle-3" data-name="Rectangle" width="14.8" height="14.8" rx="0.9" transform="translate(1.6 1.6)" fill="#d8d8d8" stroke="#979797" stroke-width="0.5" opacity="0.297"/>
                  <rect id="Rectangle-4" data-name="Rectangle" width="12.1" height="17.5" rx="0.9" transform="translate(17.75 2.95) rotate(90)" fill="none" stroke="#979797" stroke-width="0.5" opacity="0.266"/>
                </g>
                <path id="Oval" d="M9,0A9,9,0,1,1,0,9,9,9,0,0,1,9,0ZM9,1.35A7.65,7.65,0,1,0,16.65,9,7.65,7.65,0,0,0,9,1.35Z" fill="#ed2324"/>
                <text id="i" transform="translate(7.65 12.15)" fill="#ed2324" font-size="9" font-family="Ooredoo-Heavy, Ooredoo" font-weight="800" letter-spacing="0.003em"><tspan x="0" y="0">i</tspan></text>
              </g>
            </g>
          </g>
        </g>
      </g>
    </g>
  </g>
</svg>
