<svg xmlns="http://www.w3.org/2000/svg" width="45" height="45" viewBox="0 0 45 45">
    <g fill="none" fill-rule="evenodd" transform="translate(-3 -3)">
        <circle cx="25.131" cy="25.131" r="22.131" fill="#F6F6F6"/>
        <g>
            <path d="M0 0H20V20H0z" transform="translate(15 15.131)"/>
            <path fill="#211E20" d="M19.945 9.972c0 5.508-4.465 9.973-9.973 9.973C4.464 19.945 0 15.48 0 9.972 0 4.464 4.464 0 9.972 0c5.508 0 9.973 4.464 9.973 9.972z" transform="translate(15 15.131)"/>
            <path fill="#FFF" d="M7 8.45c0-.372.12-.748.357-1.129.239-.38.586-.696 1.043-.946C8.857 6.125 9.39 6 10 6c.566 0 1.066.104 1.5.313.434.21.769.494 1.005.853.236.36.354.75.354 1.172 0 .332-.067.623-.202.873s-.295.466-.48.647c-.186.182-.519.488-1 .917-.132.121-.239.228-.319.32-.08.092-.14.176-.178.252-.04.076-.07.152-.091.228-.022.076-.054.21-.097.402-.074.406-.306.609-.697.609-.203 0-.374-.066-.513-.2-.138-.132-.208-.33-.208-.591 0-.328.051-.612.153-.853.101-.24.236-.45.404-.632.168-.182.394-.398.68-.648.25-.219.43-.384.542-.495.11-.111.205-.235.28-.372.077-.137.115-.285.115-.445 0-.313-.116-.577-.349-.791-.232-.215-.532-.323-.899-.323-.43 0-.746.109-.95.326-.202.216-.374.536-.515.958-.133.44-.385.662-.756.662-.218 0-.403-.078-.553-.232C7.076 8.796 7 8.63 7 8.45zm2.86 6.421c-.239 0-.447-.077-.625-.231-.177-.155-.266-.37-.266-.648 0-.246.086-.453.258-.62.171-.169.382-.253.632-.253.246 0 .453.084.621.252.168.168.252.375.252.621 0 .274-.087.488-.263.645-.176.156-.38.234-.61.234z" transform="translate(15 15.131)"/>
        </g>
    </g>
</svg>
