<svg xmlns="http://www.w3.org/2000/svg" width="33" height="33" viewBox="0 0 33 33">
  <g id="call" transform="translate(-3.5 -3.5)">
    <g id="Group_2" data-name="Group 2">
      <path id="Path_7" data-name="Path 7" d="M9.65,20l5.03-5.72a1.33,1.33,0,0,0,.44-.8,2.133,2.133,0,0,0-.04-.92,17.919,17.919,0,0,1-.92-5.92A1.639,1.639,0,0,0,12.52,5H6.64A1.639,1.639,0,0,0,5,6.64a28.265,28.265,0,0,0,8.32,20.04,28.245,28.245,0,0,0,9,6.08A27.991,27.991,0,0,0,33.36,35,1.639,1.639,0,0,0,35,33.36V27.48a1.639,1.639,0,0,0-1.64-1.64,17.919,17.919,0,0,1-5.92-.92,2.133,2.133,0,0,0-.92-.04,1.33,1.33,0,0,0-.8.44L20,30.991" fill="none" stroke="#ed2324" stroke-linecap="round" stroke-linejoin="round" stroke-width="3"/>
      <path id="Path_8" data-name="Path 8" d="M22.5,11.5a5.27,5.27,0,0,1,3.835,1.662,1.112,1.112,0,0,1,0,1.523,1,1,0,0,1-1.455,0,3.26,3.26,0,0,0-4.76,0,1,1,0,0,1-1.455,0,1.112,1.112,0,0,1,0-1.523A5.271,5.271,0,0,1,22.5,11.5Zm0-3.5a8.39,8.39,0,0,1,6.2,2.777,1.171,1.171,0,0,1,0,1.565.969.969,0,0,1-1.448,0,6.37,6.37,0,0,0-9.5,0,.969.969,0,0,1-1.448,0,1.171,1.171,0,0,1,0-1.565A8.4,8.4,0,0,1,22.5,8Z" transform="translate(35.917 -9.912) rotate(95)" fill="#ed2324"/>
    </g>
  </g>
</svg>
