<?xml version="1.0" encoding="UTF-8"?>
<svg width="65px" height="65px" viewBox="0 0 65 65" version="1.1" xmlns="http://www.w3.org/2000/svg" xmlns:xlink="http://www.w3.org/1999/xlink">
    <title>ico_contact_whatsapp</title>
    <g id="symbol" stroke="none" stroke-width="1" fill="none" fill-rule="evenodd">
        <g id="-" transform="translate(-1030.000000, -179.000000)">
            <g id="Group-7-Copy" transform="translate(130.000000, 78.000000)">
                <g id="socmed-copy-3" transform="translate(900.000000, 101.000000)">
                    <g id="ico_contact_whatsapp" transform="translate(0.320000, 0.320000)">
                        <circle id="Oval-4" fill="#F6F6F6" cx="31.868831" cy="31.868831" r="31.868831"></circle>
                        <g id="whatsapp" transform="translate(15.680000, 15.680000)" fill="#000000" fill-rule="nonzero">
                            <path d="M10.0506325,24.8246751 L4.00266994,26.3890148 L6.26763055,20.4797559 L6.04526063,19.9953588 C3.84246697,15.1969886 5.0402512,9.45967299 9.09165865,5.9434398 C14.1011813,1.59566066 21.692384,2.12564512 26.0470928,7.12719272 C30.4018017,12.1287392 29.870967,19.7078649 24.8614558,24.0556441 C20.8100369,27.5718773 14.9528112,27.9576318 10.500135,25.1119472 L10.0506325,24.8246751 Z M7.12043973,3.67941384 C2.19597018,7.95338003 0.644612869,14.8510719 3.0954103,20.7457054 L0,29.8629548 L9.34536391,27.9240168 C14.8508483,31.1674718 21.9082052,30.5936351 26.8326747,26.3196689 C33.0945694,20.8849458 33.7581071,11.4110384 28.314721,5.15910556 C22.8713349,-1.09282837 13.3823344,-1.75530923 7.12043973,3.67941384 Z M23.2316971,18.3474799 C23.2196301,18.3402798 23.0587631,18.2454494 23.0030876,18.2119395 C22.3970915,17.8343075 21.0327388,17.0250763 20.7638525,16.9030686 C20.2098224,16.6399447 19.7938763,16.6521926 19.3981144,17.1497656 C19.2170976,17.3773656 18.7152168,17.8871339 18.2692405,18.3175443 C18.2302688,18.3553052 18.2811129,18.3534626 18.1535619,18.2739504 C15.9339728,16.9124703 15.0730007,16.0806054 14.1545327,14.1384931 C14.3228528,13.9931864 14.8614499,13.470849 15.1511387,13.0396099 C15.1885533,12.9839133 15.2254528,12.9265352 15.26186,12.8673774 C15.4679268,12.5242475 15.4609087,12.188177 15.3218631,11.8369131 C15.0963791,11.2673126 13.2184793,8.29653512 12.7502809,8.25563879 C12.3193483,8.21799676 11.8396095,8.36218778 11.4442598,8.71961052 C11.4690579,8.69675736 11.2550227,8.8898724 11.1789225,8.96254116 C11.0466661,9.08883304 10.9259729,9.216388 10.8090578,9.35779796 C10.2926142,9.98240703 9.95674093,10.7504264 9.87139018,11.7244065 C9.79573655,12.5877146 9.99923885,13.4972537 10.3885894,14.4123743 C10.592149,14.8908251 10.7529015,15.1848733 10.9985468,15.5911412 C10.8624206,15.3747615 11.3602371,16.2123554 11.6390953,16.6345072 C12.1089882,17.3458412 12.6434064,18.0492035 13.249391,18.7181747 C14.2196305,19.7892598 15.2854216,20.6735842 16.4487106,21.3014898 C18.405172,22.3557057 19.3535214,22.6219524 20.6482196,22.5450784 C21.6163296,22.485884 23.0701547,21.7237891 23.4620354,20.864708 C23.817738,20.0849105 23.9666295,19.2311744 23.7864255,18.867594 C23.7297998,18.7279684 23.6138235,18.6044175 23.4498539,18.4871855 C23.3891638,18.4437973 23.324169,18.4026473 23.2316971,18.3474799 Z" id="Shape"></path>
                        </g>
                    </g>
                </g>
            </g>
        </g>
    </g>
</svg>