<svg id="Layer_1" data-name="Layer 1" xmlns="http://www.w3.org/2000/svg" viewBox="0 0 180 54"><defs><style>.cls-1{fill:#b5b5b5;}.cls-2{fill:#fefefe;}.cls-3{fill:#fdfdfd;}.cls-4{fill:#2f2f2f;}.cls-5{fill:#cf112b;}.cls-6{fill:#fefdfd;}.cls-7{fill:#d01730;}</style></defs><path class="cls-1" d="M10.12,53.89H9.27a9.66,9.66,0,0,1-5.54-1.8A8.52,8.52,0,0,1,.4,46.6a24.26,24.26,0,0,1-.24-4.17V11.58a20.84,20.84,0,0,1,.4-4.92A8.6,8.6,0,0,1,7.49.34,22.37,22.37,0,0,1,10.86.11h158.3a14.54,14.54,0,0,1,4.41.48A8.35,8.35,0,0,1,179.51,7a14,14,0,0,1,.32,2.82V42.41c0,.59,0,1.18,0,1.77a11.8,11.8,0,0,1-.78,4.32,8.43,8.43,0,0,1-6.27,5.14,10.12,10.12,0,0,1-2,.25H10.12Z"/><path d="M90,52.77H10.77a12.67,12.67,0,0,1-4.11-.49A7.32,7.32,0,0,1,1.48,46a17.15,17.15,0,0,1-.17-2.68V10.7a12.47,12.47,0,0,1,.54-4.29,7.3,7.3,0,0,1,6.09-5,19.7,19.7,0,0,1,3.34-.19h157.4a14.54,14.54,0,0,1,4.51.44A7.3,7.3,0,0,1,178.5,8a17.08,17.08,0,0,1,.17,2.68q0,15.12,0,30.23c0,1.48,0,3-.1,4.46a7.54,7.54,0,0,1-7.07,7.31,23.39,23.39,0,0,1-2.5.13Z"/><path class="cls-2" d="M109.29,32.37c-1.89,0-3.78,0-5.67,0-.2,0-.26,0-.26.25,0,.51,0,1,0,1.54,0,.24.06.3.3.3,1,0,2,0,3,0,.25,0,.35,0,.34.33,0,.83,0,1.67,0,2.5a.36.36,0,0,1-.31.43,8.86,8.86,0,0,1-3.31.36,4.29,4.29,0,0,1-3.88-2.88,8.39,8.39,0,0,1-.41-4,5.08,5.08,0,0,1,5.26-4.77,9,9,0,0,1,3.86.89c.22.1.3.07.37-.16.14-.49.3-1,.48-1.45.1-.26.06-.37-.21-.49a10.79,10.79,0,0,0-6.58-.74,7,7,0,0,0-5.54,4.68,10.09,10.09,0,0,0-.33,5.2A6.74,6.74,0,0,0,101.56,40a12.51,12.51,0,0,0,7.81-.93c.19-.08.19-.2.19-.36v-3c0-1,0-2,0-3C109.57,32.48,109.56,32.37,109.29,32.37Z"/><path class="cls-2" d="M68.53,34.28C67.26,31.11,66,28,64.72,24.78a.43.43,0,0,0-.49-.34c-.61,0-1.21,0-1.81,0a.52.52,0,0,0-.61.4c-1.5,3.86-3,7.71-4.53,11.57-.47,1.19-.93,2.37-1.41,3.61.86,0,1.66,0,2.45,0a.37.37,0,0,0,.43-.3c.42-1.18.87-2.35,1.28-3.53.09-.24.18-.34.46-.34q2.77,0,5.55,0a.41.41,0,0,1,.46.33c.43,1.19.88,2.37,1.32,3.55.05.13.05.29.25.29h2.75l-.11-.3C70,37.91,69.26,36.09,68.53,34.28Zm-3.24-.55H61.21c-.18,0-.26,0-.18-.23.73-2,1.55-4,2.21-6.2.67,2.15,1.5,4.14,2.23,6.17C65.56,33.7,65.5,33.73,65.29,33.73Z"/><path class="cls-2" d="M89.47,28.31a4.8,4.8,0,0,0-2.58,1.55c-.06-.43-.13-.79-.15-1.16s-.13-.29-.35-.29c-.64,0-1.28,0-1.92,0-.25,0-.3.07-.29.3.07,1.23.08,2.46.08,3.69q0,6.06,0,12.12c0,.3.07.37.36.34.64-.08,1.28-.13,1.92-.16.3,0,.4-.11.4-.43,0-1.32,0-2.64,0-4,0-.32,0-.46.4-.32a5.55,5.55,0,0,0,1.62.27,5,5,0,0,0,5.12-2.9,8.22,8.22,0,0,0,.27-6.29A4,4,0,0,0,89.47,28.31Zm2.2,8.05a2.73,2.73,0,0,1-2.84,1.91A5.36,5.36,0,0,1,87.25,38a.41.41,0,0,1-.34-.46c0-.93,0-1.87,0-2.81s0-1.84,0-2.76a.58.58,0,0,1,.19-.47,3.8,3.8,0,0,1,2-1.13,2.2,2.2,0,0,1,2.58,1.55A6.79,6.79,0,0,1,91.67,36.36Z"/><path class="cls-2" d="M77.3,28.3a5,5,0,0,0-2.62,1.55c-.05-.42-.1-.8-.15-1.17,0-.17-.07-.28-.29-.27q-1,0-2,0c-.18,0-.23,0-.22.24.1,2.35.09,4.69.09,7,0,2.94,0,5.88,0,8.82,0,.32.09.37.38.34.64-.07,1.28-.12,1.92-.16.26,0,.37-.09.36-.38,0-1.34,0-2.67,0-4,0-.33,0-.45.4-.32a5.7,5.7,0,0,0,1.59.27,5,5,0,0,0,5.24-3.07A8.34,8.34,0,0,0,82.09,31,4,4,0,0,0,77.3,28.3Zm2.14,8.13a2.68,2.68,0,0,1-2.58,1.84A5.06,5.06,0,0,1,75,38a.35.35,0,0,1-.26-.4c0-.94,0-1.89,0-2.84s0-1.85,0-2.77a.56.56,0,0,1,.2-.47,3.77,3.77,0,0,1,2-1.13,2.21,2.21,0,0,1,2.59,1.58A6.84,6.84,0,0,1,79.44,36.43Z"/><path class="cls-2" d="M167.36,28.41c-.64,0-1.29,0-1.93,0a.5.5,0,0,0-.61.43c-.89,2.84-1.94,5.63-2.73,8.55l-.16-.63c-.73-2.74-1.74-5.4-2.58-8.11-.06-.19-.16-.24-.36-.24-.73,0-1.46,0-2.19,0-.36,0-.4.07-.28.39,1.28,3.46,2.52,6.94,3.85,10.39a2.22,2.22,0,0,1-.17,2,2.62,2.62,0,0,1-2.83,1.54,5.09,5.09,0,0,1-.68-.12c-.21-.06-.3,0-.35.2-.1.48-.22.95-.36,1.42-.06.23,0,.31.23.36a7.35,7.35,0,0,0,2.64.21,4.24,4.24,0,0,0,3.2-1.9,9.31,9.31,0,0,0,1.09-2.1c1.49-4.05,3-8.1,4.44-12.14C167.68,28.43,167.59,28.41,167.36,28.41Z"/><path class="cls-2" d="M121.54,33.11a7.74,7.74,0,0,0-.12-1.45A3.58,3.58,0,0,0,119,28.57a9.67,9.67,0,0,0-6.47.43c-.13.05-.16.12-.12.26a11.72,11.72,0,0,1,.3,1.43c0,.33.16.3.42.2a7.76,7.76,0,0,1,3.74-.67,2,2,0,0,1,1.86,1.63,6.27,6.27,0,0,1,.11.87c0,.47,0,.46-.44.41a12.87,12.87,0,0,0-3.87.1,3.42,3.42,0,0,0-3,3.13,3.27,3.27,0,0,0,2.54,3.76,4.67,4.67,0,0,0,2.54-.09,5.34,5.34,0,0,0,2.31-1.47c.06.45.11.85.16,1.24,0,.14,0,.23.23.22.71,0,1.41,0,2.12,0,.17,0,.21,0,.2-.22C121.49,37.57,121.55,35.34,121.54,33.11Zm-3.4,4.41a4,4,0,0,1-2.23.73,1.49,1.49,0,0,1-1.64-1.19,1.81,1.81,0,0,1,1-2.16,5.63,5.63,0,0,1,2.27-.27c.36,0,.71.06,1.07.09.17,0,.24.07.23.26s0,.59,0,.88a1.22,1.22,0,0,0,0,.27C119,36.81,118.66,37.2,118.14,37.52Z"/><path class="cls-2" d="M144.22,29.11a5.21,5.21,0,0,0-7.68,2.07,7.9,7.9,0,0,0-.26,5.64A4.54,4.54,0,0,0,139.7,40a8.21,8.21,0,0,0,2.37.2,9.41,9.41,0,0,0,3.65-.81c.12-.05.29-.07.22-.28-.19-.56-.37-1.12-.55-1.68a10.18,10.18,0,0,1-2,.61,6.66,6.66,0,0,1-1.41.12,3,3,0,0,1-3.28-2.66c0-.18,0-.36-.09-.53-.07-.33,0-.44.37-.43,2.29,0,4.58,0,6.86,0,.26,0,.36,0,.35-.33a13.17,13.17,0,0,0-.13-1.77A5.17,5.17,0,0,0,144.22,29.11Zm-.69,3.67c-.13.23-.67.06-1,.07s-.92,0-1.39,0H139c-.22,0-.28,0-.22-.28a3.4,3.4,0,0,1,1-2,2.27,2.27,0,0,1,3.57,1C143.49,32,143.7,32.46,143.53,32.78Z"/><path class="cls-2" d="M134.93,38.3c0-.27-.09-.3-.35-.25-1,.21-1.4-.15-1.44-1.14,0-.12,0-.25,0-.38v-13c0-.19,0-.24-.24-.22-.67.07-1.33.15-2,.16-.39,0-.44.15-.44.49,0,2.22,0,4.44,0,6.66s0,4.31,0,6.47a8.24,8.24,0,0,0,.07,1,2.27,2.27,0,0,0,1.78,2A5.46,5.46,0,0,0,135,40c.19-.06.22-.16.19-.34C135.07,39.21,135,38.75,134.93,38.3Z"/><path class="cls-2" d="M127.94,38.06c-.93.2-1.38-.18-1.42-1.14,0-.13,0-.26,0-.38V26.87c0-1.07,0-2.15,0-3.23,0-.24,0-.33-.32-.29a18.28,18.28,0,0,1-2,.15c-.37,0-.41.15-.4.45,0,2.29,0,4.57,0,6.85V37c0,.29,0,.59,0,.88a2.32,2.32,0,0,0,1.7,2.19,5.13,5.13,0,0,0,2.8-.13c.15,0,.2-.1.17-.27-.1-.45-.17-.91-.23-1.37C128.3,38.09,128.26,38,127.94,38.06Z"/><path class="cls-2" d="M155,28.27a3.15,3.15,0,0,0-2.93.86A10.19,10.19,0,0,0,151,30.59c-.06-.64-.13-1.18-.16-1.73,0-.33-.1-.48-.47-.46-.6,0-1.21,0-1.81,0-.22,0-.28.05-.27.28,0,1.2.07,2.41.08,3.61q0,3.66,0,7.32c0,.35.11.42.43.41.61,0,1.23,0,1.85,0,.31,0,.4-.07.4-.4,0-2,0-4.06,0-6.08a2.39,2.39,0,0,1,.71-1.85,3.14,3.14,0,0,1,3-1.1c.19,0,.28,0,.3-.2.08-.6.16-1.2.26-1.79C155.32,28.37,155.23,28.3,155,28.27Z"/><path class="cls-2" d="M137.66,17.47c.27,0,.35-.08.35-.37,0-2.33,0-4.67,0-7,0-.79,0-.79-.8-.79-.51,0-.51,0-.51.51v5.67c-.09-.14-.16-.23-.21-.32-1-1.6-2.09-3.17-3-4.81a1.74,1.74,0,0,0-2-1.06c-.29,0-.39.08-.39.39,0,2.25,0,4.51,0,6.77,0,.32-.13.73.06.93s.61,0,.92.07.37-.07.37-.36c0-1.55,0-3.1,0-4.66a6.64,6.64,0,0,1-.06-1.27.23.23,0,0,1,.14.19c1.09,1.69,2.22,3.35,3.23,5.09A1.69,1.69,0,0,0,137.66,17.47Z"/><path class="cls-2" d="M85,17.57a3.93,3.93,0,0,0,3.93-2.34,5.06,5.06,0,0,0,.32-2.49,3.49,3.49,0,0,0-2-3.1,4.45,4.45,0,0,0-4.42.23,3.9,3.9,0,0,0-1.74,3.52,4.81,4.81,0,0,0,.38,2A3.66,3.66,0,0,0,85,17.57Zm-2.2-5.39a2.44,2.44,0,0,1,2.49-1.84,2.22,2.22,0,0,1,2.31,1.71,4.38,4.38,0,0,1,0,2.68,2.38,2.38,0,0,1-2.42,1.71,2.33,2.33,0,0,1-2.34-1.76A4.18,4.18,0,0,1,82.8,12.18Z"/><path class="cls-2" d="M128.07,9.93a4.17,4.17,0,0,0-6.59,2.73,4.42,4.42,0,0,0,.88,3.66,4.44,4.44,0,0,0,5.28.7,4,4,0,0,0,1.92-3.71A3.94,3.94,0,0,0,128.07,9.93ZM128,14.42a2.52,2.52,0,0,1-5-.24,4.22,4.22,0,0,1,.18-2.2,2.46,2.46,0,0,1,2.78-1.62,2.31,2.31,0,0,1,2,2,5.51,5.51,0,0,1,.1,1A4.29,4.29,0,0,1,128,14.42Z"/><path class="cls-2" d="M97,17.45l-.19-.27-2-2.84c-.3-.43-.3-.43.16-.72a2.45,2.45,0,0,0,1.16-2.5,1.9,1.9,0,0,0-1.58-1.67,2.84,2.84,0,0,0-.64-.1c-.93,0-1.85,0-2.78,0-.31,0-.37.1-.37.39,0,2.23,0,4.46,0,6.69,0,.35-.15.8.06,1s.67,0,1,.07.35-.1.35-.37c0-.85,0-1.69,0-2.54,0-.1,0-.21.06-.29a1.34,1.34,0,0,1,1.15.25c.59.9,1.19,1.8,1.76,2.7a.47.47,0,0,0,.47.25C96.1,17.44,96.53,17.45,97,17.45ZM93,13.14c-.75,0-.75,0-.75-.76V10.65c0-.13,0-.26.18-.26a7.43,7.43,0,0,1,1.42.07,1.25,1.25,0,0,1,.54,2.15A1.71,1.71,0,0,1,93,13.14Z"/><path class="cls-2" d="M61.2,17.45a5.34,5.34,0,0,1,.81,0,1,1,0,0,0,1.19-.67c.47-.84,1-1.65,1.51-2.47.13.06.16.17.21.25l1.61,2.66c.07.11.11.23.28.23h1.5l-.19-.3-2.34-3.61a.44.44,0,0,1,0-.57c.78-1.19,1.53-2.39,2.34-3.66-.44,0-.8,0-1.15,0a.63.63,0,0,0-.67.37c-.49.84-1,1.67-1.56,2.54L63.18,9.57c-.07-.12-.1-.26-.29-.26H61.43a2.46,2.46,0,0,0,.17.3c.59.94,1.13,1.92,1.81,2.8a1.25,1.25,0,0,1,0,1.76C62.62,15.21,62,16.32,61.2,17.45Z"/><path class="cls-2" d="M56.25,17.46c1.17,0,2.34,0,3.51,0,.87,0,.85,0,.92-.89,0-.25,0-.3-.28-.29-.94,0-1.88,0-2.82,0-.26,0-.32-.08-.31-.32q0-.95,0-1.89c0-.23.08-.27.28-.27.69,0,1.37,0,2.05,0s.74,0,.75-.77c0-.27-.07-.35-.34-.34-.82,0-1.64,0-2.47,0-.22,0-.28-.06-.27-.28,0-.55,0-1.1,0-1.66,0-.25.09-.28.31-.28h2c.91,0,.9,0,1-.9,0-.22,0-.29-.24-.29H56.16c-.27,0-.32.09-.32.33,0,1.24,0,2.49,0,3.73s0,2.44,0,3.66C55.84,17.35,55.88,17.47,56.25,17.46Z"/><path class="cls-2" d="M98.5,17.46c1.16,0,2.31,0,3.47,0,.89,0,.87,0,1-.88,0-.25,0-.31-.26-.3H99.82c-.21,0-.29-.05-.29-.28q0-1,0-1.92c0-.23.08-.28.29-.28.67,0,1.34,0,2,0s.78,0,.79-.8c0-.28-.1-.31-.33-.31H99.82c-.21,0-.29-.06-.29-.28,0-.55,0-1.11,0-1.66,0-.21,0-.28.27-.28h2.12c.85,0,.85,0,1-.84,0-.25,0-.36-.29-.35H98.45c-.3,0-.33.1-.33.35,0,1.25,0,2.49,0,3.74s0,2.46,0,3.69C98.11,17.41,98.22,17.46,98.5,17.46Z"/><path class="cls-2" d="M74.71,11.78a2.26,2.26,0,0,0-2.1-2.37,20.92,20.92,0,0,0-3-.1c-.27,0-.34.07-.34.34,0,1.24,0,2.49,0,3.73s0,2.52,0,3.77c0,.23,0,.33.29.31a4.83,4.83,0,0,1,.85,0c.27,0,.31-.1.31-.33,0-.83,0-1.67,0-2.5,0-.26.08-.3.31-.26a3.94,3.94,0,0,0,1.53,0A2.52,2.52,0,0,0,74.71,11.78Zm-3.8,1.51c-.18,0-.15-.14-.15-.25,0-.41,0-.82,0-1.23s0-.79,0-1.19c0-.15,0-.23.21-.23a5.57,5.57,0,0,1,1.29.1,1.21,1.21,0,0,1,1,1.23,1.46,1.46,0,0,1-.88,1.48A2.87,2.87,0,0,1,70.91,13.29Z"/><path class="cls-2" d="M112.87,10.5c.32,0,.38.09.37.38,0,2.08,0,4.16,0,6.24,0,.26,0,.37.33.34a3.3,3.3,0,0,1,.77,0c.29,0,.33-.09.33-.35,0-1,0-2.07,0-3.11s0-2.13,0-3.19c0-.24,0-.32.29-.31.41,0,.82,0,1.23,0s.63.09.83,0,.07-.53.15-.8,0-.35-.32-.35h-5c-1,0-.94,0-1.06.94,0,.26.06.26.26.26C111.62,10.5,112.25,10.53,112.87,10.5Z"/><path class="cls-2" d="M76.45,17.46c1.12,0,2.24,0,3.35,0,.31,0,.69.13.9-.06s.06-.56.14-.84,0-.34-.31-.33c-.86,0-1.72,0-2.58,0-.41,0-.47-.12-.47-.49,0-1.78,0-3.56,0-5.35,0-.34.11-.81-.06-1s-.68,0-1-.08-.33.1-.33.35c0,1.23,0,2.47,0,3.7s0,2.49,0,3.73C76.06,17.41,76.17,17.46,76.45,17.46Z"/><path class="cls-3" d="M108.45,9.31c-.3,0-.33.11-.33.36,0,1.24,0,2.48,0,3.73,0,1,0,2,0,3,0,.34-.16.81.06,1s.67,0,1,.07.36-.06.36-.35c0-2.23,0-4.47,0-6.7,0-.35.15-.82-.06-1S108.8,9.35,108.45,9.31Z"/><path class="cls-4" d="M132.41,11.44a6.69,6.69,0,0,0,0,1c.1-.35-.08-.73.08-1.08C132.43,11.31,132.41,11.37,132.41,11.44Z"/><path class="cls-4" d="M132.38,11.17a6.64,6.64,0,0,0,.06,1.27,6.69,6.69,0,0,1,0-1c0-.07,0-.13.11-.08A.23.23,0,0,0,132.38,11.17Z"/><path class="cls-5" d="M28.43,9.87c2.9,0,5.81,0,8.71,0a12.82,12.82,0,0,1,3.42.52,6.31,6.31,0,0,1,4.59,4.95,15.16,15.16,0,0,1,.4,3.55V35.11A14.25,14.25,0,0,1,45.06,39a6.33,6.33,0,0,1-5,4.74,17.42,17.42,0,0,1-4.13.44H20.84a16.66,16.66,0,0,1-4.5-.54,6.33,6.33,0,0,1-4.64-4.87,16.47,16.47,0,0,1-.45-4.08q0-7.65,0-15.32a16.57,16.57,0,0,1,.47-4.15,6.35,6.35,0,0,1,5.07-4.91,15,15,0,0,1,3.47-.4h8.17Z"/><path class="cls-2" d="M30.92,30c.32-1,.63-1.87.91-2.77.07-.22.17-.31.4-.28s.46-.07.56.28c.23.8.51,1.59.78,2.38a.6.6,0,0,0,.15.31c.29-.88.58-1.75.85-2.63.08-.28.19-.38.47-.34s.38,0,.61,0l-1.11,3.19a8.27,8.27,0,0,0-.36,1.06c-.08.32-.3.25-.51.26s-.38,0-.47-.26c-.27-.85-.57-1.7-.87-2.55-.16.08-.15.24-.2.36-.26.72-.52,1.44-.75,2.18-.08.27-.24.28-.46.27s-.4.05-.5-.26c-.45-1.33-.92-2.66-1.39-4-.09-.24,0-.27.2-.27.69,0,.69,0,.9.64S30.64,29.16,30.92,30Z"/><path class="cls-2" d="M28.44,21.3A5.7,5.7,0,0,1,22.72,16c0-.15-.14-.44.21-.39s.58-.22.62.33a4.86,4.86,0,0,0,4.67,4.55,4.91,4.91,0,0,0,5.05-4.25,1.94,1.94,0,0,0,0-.34c0-.24.06-.31.3-.3.59,0,.59,0,.52.58a5.71,5.71,0,0,1-4.87,5.08C29,21.27,28.7,21.28,28.44,21.3Z"/><path class="cls-6" d="M15.09,29.21c0-.64,0-1.28,0-1.92,0-.24.05-.33.31-.33.62,0,.62,0,.62.63,0,.31,0,.61,0,.92s0,.28.25.27c.51,0,1,0,1.54,0,.21,0,.26-.08.25-.27,0-.41,0-.83,0-1.23,0-.23,0-.32.29-.32.64,0,.64,0,.64.65,0,1.15,0,2.31,0,3.46,0,.31,0,.43-.39.42-.64,0-.54.06-.55-.57,0-.33,0-.67,0-1s0-.28-.26-.27c-.52,0-1.05,0-1.58,0-.17,0-.21.06-.21.22,0,.44,0,.88,0,1.31,0,.24-.06.3-.3.3-.63,0-.63,0-.63-.62Z"/><path class="cls-2" d="M36.35,29.2c0-.65,0-1.31,0-2,0-.22.07-.28.28-.27.93,0,1.85,0,2.78,0,.21,0,.28,0,.28.27,0,.58,0,.58-.55.58s-1,0-1.58,0c-.21,0-.32.05-.28.28v.07c0,.54,0,.54.52.54h.58c.55,0,.66.15.55.7,0,.18-.15.15-.26.15H37.55c-.22,0-.27.07-.28.28,0,.8,0,.8.78.8.47,0,1,0,1.42,0,.25,0,.35.09.28.31s.21.53-.19.54c-1,0-2,0-3,0-.22,0-.21-.13-.21-.28C36.36,30.54,36.35,29.87,36.35,29.2Z"/><path class="cls-2" d="M24.11,28.59A9,9,0,0,1,24,30.11c-.21,1-.92,1.48-2.14,1.41a1.65,1.65,0,0,1-1.65-1.6c-.09-.9,0-1.81,0-2.72,0-.2.08-.23.25-.23.68,0,.68,0,.68.64s0,1.38,0,2.07a.91.91,0,0,0,1,1,.94.94,0,0,0,1-1.06c0-.77,0-1.54,0-2.31,0-.24.06-.32.32-.32.63,0,.63,0,.63.62Z"/><path class="cls-2" d="M26.92,30.53a.61.61,0,0,1-.19,0,.85.85,0,0,0-1.14.71c-.05.2-.83.37-1,.23s0-.14,0-.21c.61-1.37,1.21-2.74,1.81-4.11.11-.26.32-.16.49-.16s.38-.1.49.16q.88,2.05,1.8,4.11c.08.17.05.24-.14.23a5.61,5.61,0,0,0-.58,0,.21.21,0,0,1-.23-.16C28.12,30.55,27.62,30.37,26.92,30.53Z"/><path class="cls-6" d="M41.75,29.25c0,.64,0,1.28,0,1.92,0,.22,0,.34-.3.31a1.93,1.93,0,0,0-.34,0c-.25,0-.3-.08-.3-.31,0-1.3,0-2.61,0-3.92,0-.21,0-.28.27-.29.66,0,.66,0,.66.63Z"/><path class="cls-7" d="M26.91,28.15l.67,1.56H26.44c-.15,0-.17-.05-.11-.19C26.52,29.09,26.7,28.66,26.91,28.15Z"/></svg>