<?xml version="1.0" encoding="UTF-8"?>
<svg width="45px" height="45px" viewBox="0 0 45 45" version="1.1" xmlns="http://www.w3.org/2000/svg" xmlns:xlink="http://www.w3.org/1999/xlink">
    <!-- Generator: sketchtool 62 (101010) - https://sketch.com -->
    <title>8AF20F37-4574-43DF-B64C-B2F76D840D69</title>
    <desc>Created with sketchtool.</desc>
    <g id="symbol" stroke="none" stroke-width="1" fill="none" fill-rule="evenodd">
        <g id="MOBILE/SUB_FOOTER" transform="translate(-70.000000, -885.000000)">
            <g id="FOOTER_MOBILE" transform="translate(0.000000, 342.000000)">
                <g id="footer">
                    <g id="Group-3" transform="translate(0.000000, 492.000000)">
                        <g id="Group-11">
                            <g id="Group-7" transform="translate(70.000000, 15.000000)">
                                <g id="socmed" transform="translate(0.000000, 35.400000)">
                                    <g id="Group-21" transform="translate(0.000000, 0.700000)">
                                        <circle id="Oval-4" fill="#3F86E3" cx="22.3265423" cy="22.3265423" r="22.3265423"></circle>
                                        <path d="M23.8050186,29.4861552 L23.8050186,22.3938564 L26.1784624,22.3938564 L26.5428889,19.6279533 L23.8050186,19.6279533 L23.8050186,17.8618868 C23.8050186,17.0676241 24.0199367,16.5163124 25.1692816,16.5163124 L26.6363315,16.5163124 L26.6363315,14.0494258 C26.3840363,14.0120488 25.5150195,13.9372946 24.5058386,13.9372946 C22.3940343,13.9372946 20.9456728,15.2268035 20.9456728,17.5909031 L20.9456728,19.6279533 L18.5628847,19.6279533 L18.5628847,22.3938564 L20.9456728,22.3938564 L20.9456728,29.4861552 L23.8050186,29.4861552 Z" id="" fill="#FFFFFF" fill-rule="nonzero"></path>
                                    </g>
                                </g>
                            </g>
                        </g>
                    </g>
                </g>
            </g>
        </g>
    </g>
</svg>