<svg id="Layer_1" data-name="Layer 1" xmlns="http://www.w3.org/2000/svg" xmlns:xlink="http://www.w3.org/1999/xlink" viewBox="0 0 183 54"><defs><style>.cls-1{fill:#a6a6a6;}.cls-10,.cls-2,.cls-3{fill:#fff;}.cls-2{stroke:#fff;stroke-width:0.5px;}.cls-4{fill:url(#linear-gradient);}.cls-5{fill:url(#linear-gradient-2);}.cls-6{fill:url(#linear-gradient-3);}.cls-7{fill:url(#linear-gradient-4);}.cls-8{opacity:0.2;}.cls-10,.cls-8,.cls-9{isolation:isolate;}.cls-9{opacity:0.12;}.cls-10{opacity:0.25;}</style><linearGradient id="linear-gradient" x1="-201.1" y1="413.07" x2="-201.45" y2="412.41" gradientTransform="matrix(17.42, 0, 0, -33.84, 3527.77, 13992.15)" gradientUnits="userSpaceOnUse"><stop offset="0" stop-color="#00a0ff"/><stop offset="0.01" stop-color="#00a1ff"/><stop offset="0.26" stop-color="#00beff"/><stop offset="0.51" stop-color="#00d2ff"/><stop offset="0.76" stop-color="#00dfff"/><stop offset="1" stop-color="#00e3ff"/></linearGradient><linearGradient id="linear-gradient-2" x1="-197.31" y1="391.66" x2="-199.69" y2="391.66" gradientTransform="matrix(13.7, 0, 0, -11.56, 2749.25, 4552.97)" gradientUnits="userSpaceOnUse"><stop offset="0" stop-color="#ffe000"/><stop offset="0.41" stop-color="#ffbd00"/><stop offset="0.78" stop-color="orange"/><stop offset="1" stop-color="#ff9c00"/></linearGradient><linearGradient id="linear-gradient-3" x1="-203.7" y1="402.6" x2="-205.06" y2="401.54" gradientTransform="matrix(22.52, 0, 0, -17.37, 4618.95, 7025.75)" gradientUnits="userSpaceOnUse"><stop offset="0" stop-color="#ff3a44"/><stop offset="1" stop-color="#c31162"/></linearGradient><linearGradient id="linear-gradient-4" x1="-204.75" y1="402.85" x2="-204.14" y2="402.38" gradientTransform="matrix(22.52, 0, 0, -17.37, 4618.95, 7007.07)" gradientUnits="userSpaceOnUse"><stop offset="0" stop-color="#32a071"/><stop offset="0.07" stop-color="#2da771"/><stop offset="0.48" stop-color="#15cf74"/><stop offset="0.8" stop-color="#06e775"/><stop offset="1" stop-color="#00f076"/></linearGradient></defs><g id="button_btn_download_android_ENG" data-name="button/btn_download_android_ENG"><g id="Asset-1"><rect id="Rectangle" width="182.25" height="54" rx="6.75"/><path id="Shape" class="cls-1" d="M175.5,1.08a5.67,5.67,0,0,1,5.67,5.67v40.5a5.67,5.67,0,0,1-5.67,5.67H6.75a5.67,5.67,0,0,1-5.67-5.67V6.75A5.67,5.67,0,0,1,6.75,1.08H175.5m0-1.08H6.75A6.75,6.75,0,0,0,0,6.75v40.5A6.75,6.75,0,0,0,6.75,54H175.5a6.75,6.75,0,0,0,6.75-6.75V6.75A6.75,6.75,0,0,0,175.5,0Z"/><path id="Path" class="cls-2" d="M64,13.82a3.66,3.66,0,0,1-1,2.7,3.88,3.88,0,0,1-3,1.19,4,4,0,0,1-3-1.21,4.08,4.08,0,0,1-1.23-3,4.06,4.06,0,0,1,1.23-3,4.26,4.26,0,0,1,4.64-.88,3.3,3.3,0,0,1,1.27.91l-.71.71a2.74,2.74,0,0,0-2.22-1,3.25,3.25,0,0,0-1.22,6.21,3.2,3.2,0,0,0,3.48-.63A2.63,2.63,0,0,0,63,14.19H60v-1H64Q64,13.52,64,13.82Z"/><polygon id="Path-2" data-name="Path" class="cls-2" points="70.2 10.45 66.56 10.45 66.56 13.01 69.88 13.01 69.88 13.99 66.56 13.99 66.56 16.55 70.2 16.55 70.2 17.55 65.5 17.55 65.5 9.45 70.2 9.45 70.2 10.45"/><polygon id="Path-3" data-name="Path" class="cls-2" points="74.63 17.55 73.59 17.55 73.59 10.45 71.32 10.45 71.32 9.45 76.95 9.45 76.95 10.45 74.63 10.45 74.63 17.55"/><polygon id="Path-4" data-name="Path" class="cls-2" points="80.92 17.55 80.92 9.45 81.96 9.45 81.96 17.55 80.92 17.55"/><polygon id="Path-5" data-name="Path" class="cls-2" points="86.58 17.55 85.54 17.55 85.54 10.45 83.27 10.45 83.27 9.45 88.83 9.45 88.83 10.45 86.58 10.45 86.58 17.55"/><path id="Shape-2" data-name="Shape" class="cls-2" d="M99.37,16.5a4.2,4.2,0,0,1-5.94,0,4,4,0,0,1-1.18-3,4.17,4.17,0,0,1,7.12-3,4.11,4.11,0,0,1,1.19,3,4,4,0,0,1-1.19,3Zm-5.17-.68a3.09,3.09,0,0,0,4.4,0,3.35,3.35,0,0,0,0-4.64,3.09,3.09,0,0,0-4.4,0,3.16,3.16,0,0,0-.85,2.32,3.19,3.19,0,0,0,.9,2.32Z"/><polygon id="Path-6" data-name="Path" class="cls-2" points="102.03 17.55 102.03 9.45 103.29 9.45 107.23 15.76 107.23 15.76 107.23 14.19 107.23 9.45 108.27 9.45 108.27 17.55 107.19 17.55 103.07 10.95 103.07 10.95 103.07 12.5 103.07 17.55 102.03 17.55"/><path id="Shape-3" data-name="Shape" class="cls-3" d="M92,29.36a5.75,5.75,0,1,0,5.76,5.74A5.65,5.65,0,0,0,92,29.36Zm0,9.22a3.48,3.48,0,1,1,3.24-3.48A3.33,3.33,0,0,1,92,38.58ZM79.41,29.36a5.75,5.75,0,1,0,5.76,5.74,5.65,5.65,0,0,0-5.76-5.74Zm0,9.22a3.48,3.48,0,1,1,3.24-3.48,3.33,3.33,0,0,1-3.24,3.48Zm-15-7.45v2.43h5.83a5.1,5.1,0,0,1-1.35,3.07,6,6,0,0,1-4.51,1.78,6.48,6.48,0,0,1,0-13,6.24,6.24,0,0,1,4.43,1.74l1.71-1.72A8.5,8.5,0,0,0,64.45,23a8.92,8.92,0,1,0,0,17.83,8.18,8.18,0,0,0,6.22-2.5,8.06,8.06,0,0,0,2.11-5.71,9.61,9.61,0,0,0-.12-1.51ZM125.62,33A5.31,5.31,0,0,0,115.3,35.1a5.72,5.72,0,0,0,10.48,3.2l-2-1.35A3.25,3.25,0,0,1,121,38.53a2.9,2.9,0,0,1-2.78-1.74l7.68-3.17Zm-7.83,1.92a3.15,3.15,0,0,1,3-3.35,2.21,2.21,0,0,1,2.12,1.22Zm-6.24,5.56h2.52V23.62h-2.52Zm-4.13-9.85h-.1a3.93,3.93,0,0,0-3-1.29,5.75,5.75,0,0,0,0,11.49,3.87,3.87,0,0,0,3-1.35h.1v.82c0,2.21-1.17,3.38-3.06,3.38a3.19,3.19,0,0,1-2.91-2l-2.18.91a5.4,5.4,0,0,0,5.09,3.4c3,0,5.39-1.74,5.39-6V29.7h-2.33Zm-2.9,7.93a3.48,3.48,0,0,1,0-6.95,3.23,3.23,0,0,1,3.08,3.47,3.25,3.25,0,0,1-.8,2.4,3.19,3.19,0,0,1-2.28,1.08Zm32.92-15h-6V40.5h2.52V34.1h3.52a5.25,5.25,0,1,0,0-10.48Zm0,8.11h-3.52V26h3.58a2.89,2.89,0,0,1,0,5.78ZM153,29.31a4.7,4.7,0,0,0-4.49,2.58l2.22.93a2.69,2.69,0,0,1,5,.94v.17a5.6,5.6,0,0,0-2.63-.65c-2.4,0-4.86,1.35-4.86,3.8a3.9,3.9,0,0,0,4.2,3.72,3.57,3.57,0,0,0,3.21-1.65h.08V40.5h2.43V34c0-3-2.24-4.67-5.11-4.67Zm-.31,9.25c-.82,0-2-.42-2-1.44,0-1.34,1.43-1.8,2.7-1.8a4.51,4.51,0,0,1,2.3.56,3.06,3.06,0,0,1-3,2.7Zm14.34-8.86L164.16,37h-.08l-3-7.32h-2.7l4.5,10.23-2.57,5.69H163l6.85-15.92ZM144.37,40.5h2.51V23.62h-2.51Z"/><path id="Path-7" data-name="Path" class="cls-4" d="M14.09,10.18a2.69,2.69,0,0,0-.59,1.89V41.93a2.6,2.6,0,0,0,.63,1.89l.1.11L30.92,27.2v-.4L14.19,10.08Z"/><path id="Path-8" data-name="Path" class="cls-5" d="M36.45,32.78,30.92,27.2v-.4l5.53-5.58.12.08,6.63,3.76c1.89,1.06,1.89,2.82,0,3.9l-6.6,3.75Z"/><path id="Path-9" data-name="Path" class="cls-6" d="M36.61,32.71,30.92,27,14.09,43.82a2.2,2.2,0,0,0,2.8.1L36.61,32.71"/><path id="Path-10" data-name="Path" class="cls-7" d="M36.61,21.3,16.89,10.1a2.18,2.18,0,0,0-2.8.08L30.92,27Z"/><path id="Path-11" data-name="Path" class="cls-8" d="M36.45,32.58,16.89,43.71a2.22,2.22,0,0,1-2.7,0h0l-.1.1h0l.1.11h0a2.25,2.25,0,0,0,2.7,0L36.61,32.71Z"/><path id="Path-12" data-name="Path" class="cls-9" d="M14.09,43.63a2.7,2.7,0,0,1-.59-1.9v.2a2.6,2.6,0,0,0,.63,1.89l.1-.09Z"/><path id="Path-13" data-name="Path" class="cls-9" d="M43.2,28.75l-6.75,3.83.12.13,6.63-3.77A2.33,2.33,0,0,0,44.63,27h0a2.49,2.49,0,0,1-1.43,1.75Z"/><path id="Path-14" data-name="Path" class="cls-10" d="M16.89,10.29l26.31,15A2.49,2.49,0,0,1,44.63,27h0a2.33,2.33,0,0,0-1.43-1.94l-26.31-15C15,9,13.5,9.91,13.5,12.07v.2C13.5,10.11,15,9.22,16.89,10.29Z"/></g></g></svg>