<?xml version="1.0" encoding="UTF-8"?>
<svg width="46px" height="45px" viewBox="0 0 46 45" version="1.1" xmlns="http://www.w3.org/2000/svg" xmlns:xlink="http://www.w3.org/1999/xlink">
    <!-- Generator: sketchtool 62 (101010) - https://sketch.com -->
    <title>216F6760-4AF4-4E59-89FB-53796AD803FD</title>
    <desc>Created with sketchtool.</desc>
    <g id="symbol" stroke="none" stroke-width="1" fill="none" fill-rule="evenodd">
        <g id="MOBILE/SUB_FOOTER" transform="translate(-129.000000, -885.000000)">
            <g id="FOOTER_MOBILE" transform="translate(0.000000, 342.000000)">
                <g id="footer">
                    <g id="Group-3" transform="translate(0.000000, 492.000000)">
                        <g id="Group-11">
                            <g id="Group-7" transform="translate(70.000000, 15.000000)">
                                <g id="socmed" transform="translate(0.000000, 35.400000)">
                                    <g id="Group-21" transform="translate(59.500000, 0.700000)">
                                        <circle id="Oval-4" fill="#2B2B2B" cx="22.3265423" cy="22.3265423" r="22.3265423"></circle>
                                        <path d="M24.4745298,29.8213449 C25.6238747,29.7652793 26.6423998,29.5036398 27.4833839,28.6626557 C28.3243679,27.8216717 28.5860074,26.8031466 28.642073,25.6538017 C28.6841222,24.9109325 28.6893783,24.1733194 28.6893783,23.4330782 L28.6887943,22.691669 C28.6887943,21.7011767 28.6981386,20.7200287 28.642073,19.7295363 C28.5860074,18.5801915 28.3243679,17.5616664 27.4833839,16.7206823 C26.6423998,15.8796983 25.6238747,15.6180588 24.4745298,15.5619932 C23.4840375,15.5059276 22.5028895,15.5152719 21.5123972,15.5152719 C20.5219048,15.5152719 19.5407568,15.5059276 18.5502645,15.5619932 C17.4009196,15.6180588 16.3823945,15.8796983 15.5414105,16.7206823 C14.7004264,17.5616664 14.4387869,18.5801915 14.3827213,19.7295363 C14.3406721,20.4724056 14.335416,21.2100187 14.335416,21.9502598 L14.336,22.691669 C14.336,23.6821613 14.3266557,24.6633094 14.3827213,25.6538017 C14.4387869,26.8031466 14.7004264,27.8216717 15.5414105,28.6626557 C16.3823945,29.5036398 17.4009196,29.7652793 18.5502645,29.8213449 C19.5407568,29.8774105 20.5219048,29.8680662 21.5123972,29.8680662 C22.5028895,29.8680662 23.4840375,29.8774105 24.4745298,29.8213449 Z M17.2794441,28.288885 C16.9523948,28.1580653 16.7094439,27.9992128 16.4571486,27.7469176 C16.2048534,27.4946223 16.0460009,27.2516714 15.9151811,26.924622 C15.5414105,25.9808511 15.6255089,23.738227 15.6255089,22.691669 C15.6255089,21.6451111 15.5414105,19.402487 15.9151811,18.458716 C16.0460009,18.1316667 16.2048534,17.8887157 16.4571486,17.6364205 C16.7094439,17.3841253 16.9523948,17.2252728 17.2794441,17.094453 C18.2232151,16.7206823 20.4658392,16.8047807 21.5123972,16.8047807 C22.5589551,16.8047807 24.8015792,16.7206823 25.7453502,17.094453 C26.0723995,17.2252728 26.3153505,17.3841253 26.5676457,17.6364205 C26.8199409,17.8887157 26.9787934,18.1316667 27.1096132,18.458716 C27.4613974,19.3469711 27.4075951,21.3857673 27.4000481,22.4950742 L27.3992855,22.691669 C27.3992855,23.738227 27.4833839,25.9808511 27.1096132,26.924622 C26.9787934,27.2516714 26.8199409,27.4946223 26.5676457,27.7469176 C26.3153505,27.9992128 26.0723995,28.1580653 25.7453502,28.288885 C24.8015792,28.6626557 22.5589551,28.5785573 21.5123972,28.5785573 C20.4658392,28.5785573 18.2232151,28.6626557 17.2794441,28.288885 Z M25.3435467,19.7201921 C25.8201043,19.7201921 26.2032193,19.3370771 26.2032193,18.8605195 C26.2032193,18.3839619 25.8201043,18.0008469 25.3435467,18.0008469 C24.8669891,18.0008469 24.4838741,18.3839619 24.4838741,18.8605195 C24.4838741,19.3370771 24.8669891,19.7201921 25.3435467,19.7201921 Z M21.5123972,26.3733103 C23.5494474,26.3733103 25.1940384,24.7287193 25.1940384,22.691669 C25.1940384,20.6546188 23.5494474,19.0100278 21.5123972,19.0100278 C19.4753469,19.0100278 17.8307559,20.6546188 17.8307559,22.691669 C17.8307559,24.7287193 19.4753469,26.3733103 21.5123972,26.3733103 Z M21.5123972,25.0838014 C20.1948555,25.0838014 19.1202648,24.0092107 19.1202648,22.691669 C19.1202648,21.3741274 20.1948555,20.2995366 21.5123972,20.2995366 C22.8299388,20.2995366 23.9045296,21.3741274 23.9045296,22.691669 C23.9045296,24.0092107 22.8299388,25.0838014 21.5123972,25.0838014 Z" id="" fill="#FFFFFF" fill-rule="nonzero"></path>
                                    </g>
                                </g>
                            </g>
                        </g>
                    </g>
                </g>
            </g>
        </g>
    </g>
</svg>