<svg xmlns="http://www.w3.org/2000/svg" xmlns:xlink="http://www.w3.org/1999/xlink" viewBox="0 0 65.97 67.97"><defs><style>.cls-1{fill:#e22a2b;}.cls-2{fill:#e9c01e;}.cls-3{fill:#fed500;}.cls-4{clip-path:url(#clip-path);}.cls-5{clip-path:url(#clip-path-2);}.cls-6{fill:#fff;}.cls-7{fill:#e71d29;}.cls-8{fill:#041319;}</style><clipPath id="clip-path"><circle class="cls-1" cx="43.95" cy="12.95" r="5.8"/></clipPath><clipPath id="clip-path-2"><circle class="cls-1" cx="28.47" cy="25.69" r="14.35"/></clipPath></defs><g id="Layer_2" data-name="Layer 2"><g id="Layer_1-2" data-name="Layer 1"><rect class="cls-2" y="4" width="65.97" height="63.97" rx="15.06"/><rect class="cls-3" width="65.97" height="65.97" rx="15.06"/><circle class="cls-1" cx="43.95" cy="12.95" r="5.8"/><g class="cls-4"><rect class="cls-1" x="32.45" y="4.6" width="16.91" height="16.91" rx="7.43"/></g><circle class="cls-1" cx="28.47" cy="25.69" r="14.35"/><g class="cls-5"><rect class="cls-1" x="0.04" y="5.06" width="41.8" height="41.8" rx="9.03"/></g><path class="cls-6" d="M27.9,21.41a3.3,3.3,0,0,0-2.3.85,2.73,2.73,0,0,0-2.08-.85,2.65,2.65,0,0,0-2.07.84,1,1,0,0,0-.95-.84,1,1,0,0,0-.95,1v5.7a.46.46,0,0,0,.52.52H21a.45.45,0,0,0,.51-.52V24.63a1.28,1.28,0,0,1,1.34-1.39,1.26,1.26,0,0,1,1.32,1.39v3.44a.46.46,0,0,0,.52.52h.88a.45.45,0,0,0,.51-.52V24.6a1.33,1.33,0,1,1,2.66,0v3.44a.46.46,0,0,0,.52.52h.88a.46.46,0,0,0,.51-.52v-4A2.48,2.48,0,0,0,27.9,21.41Z"/><path class="cls-6" d="M37.27,21.41a1.1,1.1,0,0,0-1,.76c-.44,1.14-.88,2.26-1.31,3.39-.42-1.13-.86-2.25-1.3-3.39a1.1,1.1,0,0,0-1-.76,1,1,0,0,0-1,1,1.05,1.05,0,0,0,.12.5L34,28a3.54,3.54,0,0,1-.8,1.23,1.11,1.11,0,0,1-.79.28,1,1,0,0,0-.94,1c0,.52.42,1,1.18,1a2.32,2.32,0,0,0,.91-.19,4,4,0,0,0,2-2.16l.41-.92h0l0-.08,2.24-5.11a1.05,1.05,0,0,0,.12-.5A1,1,0,0,0,37.27,21.41Z"/><path class="cls-6" d="M15.75,35A3.27,3.27,0,1,1,19,31.69,3.26,3.26,0,0,1,15.75,35Z"/><path class="cls-6" d="M15.75,33.33a1.64,1.64,0,1,0-1.64-1.64A1.64,1.64,0,0,0,15.75,33.33Z"/><path class="cls-6" d="M13.86,52.53a1.39,1.39,0,0,1-1.39-1.39v-15A3.28,3.28,0,0,1,19,36.07V52.53Z"/><path class="cls-6" d="M15.75,34.64a1.68,1.68,0,0,0-1.65,1.59V50.9h3.3V36.18A1.67,1.67,0,0,0,15.75,34.64Z"/><path class="cls-6" d="M36.32,52.53V40.86a1.38,1.38,0,0,0-1.43-1.31,1.4,1.4,0,0,0-1.47,1.31v8.39a3.25,3.25,0,0,1-3.23,3.14A3.14,3.14,0,0,1,27,49.2V40.86a1.4,1.4,0,0,0-1.46-1.31,1.33,1.33,0,0,0-1.41,1.31V52.53H17.55V40.82a7.81,7.81,0,0,1,2.39-5.51A8,8,0,0,1,25.5,33a8.36,8.36,0,0,1,4.71,1.44A8.41,8.41,0,0,1,34.92,33a8.09,8.09,0,0,1,5.57,2.32,7.84,7.84,0,0,1,2.38,5.51V52.53Z"/><path class="cls-6" d="M34.92,34.62A6.68,6.68,0,0,0,30.83,36l-.62.48L29.6,36a6.71,6.71,0,0,0-4.1-1.38,6.42,6.42,0,0,0-6.32,6.2V50.9h3.29v-10a3,3,0,0,1,3-2.94,3,3,0,0,1,3.09,2.94V49.2a1.52,1.52,0,0,0,1.59,1.56,1.6,1.6,0,0,0,1.6-1.56V40.86a3.08,3.08,0,0,1,6.16,0v10h3.29V40.82A6.42,6.42,0,0,0,34.92,34.62Z"/><path class="cls-6" d="M41.2,52.53V46.1h8.09a.08.08,0,0,0,.07-.07A.08.08,0,0,0,49.3,46H45.83a3.19,3.19,0,1,1,0-6.38h3.5a.08.08,0,0,0,.07-.08.08.08,0,0,0-.07-.07H41.2V34.7A1.68,1.68,0,0,1,42.88,33h6.48a6.45,6.45,0,0,1,6.4,6.48,6.6,6.6,0,0,1-.88,3.28,6.6,6.6,0,0,1,.88,3.28,6.44,6.44,0,0,1-6.38,6.48H41.2Z"/><path class="cls-6" d="M52.91,42.77l.28-.38a4.93,4.93,0,0,0,1-2.9,4.83,4.83,0,0,0-4.78-4.85H42.83v3.14h6.46a1.71,1.71,0,0,1,0,3.41h-3.5a1.56,1.56,0,0,0,0,3.12H49.3a1.71,1.71,0,0,1,0,3.41H42.83V50.9h6.54a4.83,4.83,0,0,0,4.77-4.85,4.93,4.93,0,0,0-1-2.89Z"/><rect class="cls-6" x="21.61" y="37.91" width="18.94" height="14.62"/><rect class="cls-6" x="41.83" y="37.91" width="8.05" height="9.15"/><path class="cls-7" d="M14.11,31.69a1.64,1.64,0,1,1,1.64,1.64,1.63,1.63,0,0,1-1.64-1.64"/><path class="cls-8" d="M15.75,34.64a1.68,1.68,0,0,0-1.65,1.59V50.9h3.3V36.18a1.67,1.67,0,0,0-1.65-1.54"/><path class="cls-8" d="M34.92,34.62A6.68,6.68,0,0,0,30.83,36l-.62.48L29.6,36a6.71,6.71,0,0,0-4.1-1.38,6.42,6.42,0,0,0-6.32,6.2V50.9h3.29v-10a3,3,0,0,1,3-2.94,3,3,0,0,1,3.09,2.94V49.2a1.52,1.52,0,0,0,1.59,1.56,1.6,1.6,0,0,0,1.6-1.56V40.86a3.08,3.08,0,0,1,6.16,0v10h3.29V40.82a6.42,6.42,0,0,0-6.32-6.2"/><path class="cls-8" d="M49.3,44.32a1.71,1.71,0,0,1,0,3.41H42.83V50.9h6.54a4.83,4.83,0,0,0,4.77-4.85,4.93,4.93,0,0,0-1-2.89l-.28-.39.28-.38a4.93,4.93,0,0,0,1-2.9,4.83,4.83,0,0,0-4.78-4.85H42.83v3.14h6.46a1.71,1.71,0,0,1,0,3.41h-3.5a1.56,1.56,0,0,0,0,3.12Z"/></g></g></svg>