<svg id="Layer_1" data-name="Layer 1" xmlns="http://www.w3.org/2000/svg" viewBox="0 0 161 54"><defs><style>.cls-1{fill:#a6a6a6;}.cls-2{fill:#fff;}</style></defs><g id="button_btn_download_apple_ENG" data-name="button/btn_download_apple_ENG"><g id="Download_on_the_App_Store_Badge_US-UK_RGB_blk_092917" data-name="Download on the App Store Badge US-UK RGB blk 092917"><g id="Group"><g id="Path"><path class="cls-1" d="M148.68,0H11.39L10.15,0a17.48,17.48,0,0,0-2.7.24,9.22,9.22,0,0,0-2.57.84A8.58,8.58,0,0,0,2.7,2.7,8.31,8.31,0,0,0,1.11,4.88,9,9,0,0,0,.26,7.45,17.61,17.61,0,0,0,0,10.16c0,.41,0,.83,0,1.24V42.6c0,.42,0,.83,0,1.25a17.48,17.48,0,0,0,.24,2.7,8.93,8.93,0,0,0,.85,2.57A8.15,8.15,0,0,0,2.7,51.3a8.31,8.31,0,0,0,2.18,1.59,8.93,8.93,0,0,0,2.57.85,17.48,17.48,0,0,0,2.7.24l1.24,0H150.15l1.24,0a17.48,17.48,0,0,0,2.7-.24,9.09,9.09,0,0,0,2.58-.85,8.73,8.73,0,0,0,3.77-3.77,8.91,8.91,0,0,0,.84-2.57,18.82,18.82,0,0,0,.25-2.7c0-.42,0-.83,0-1.25s0-1,0-1.47V12.87c0-.49,0-1,0-1.47s0-.83,0-1.24a19,19,0,0,0-.25-2.71,9,9,0,0,0-.84-2.57,8.77,8.77,0,0,0-3.77-3.78,9.4,9.4,0,0,0-2.58-.84,17.48,17.48,0,0,0-2.7-.24l-1.24,0Z"/><path d="M11.4,52.82l-1.22,0a16.28,16.28,0,0,1-2.52-.22,7.66,7.66,0,0,1-2.24-.74,7.09,7.09,0,0,1-1.89-1.37,7,7,0,0,1-1.37-1.88,7.76,7.76,0,0,1-.74-2.24,16.51,16.51,0,0,1-.22-2.53c0-.29,0-1.23,0-1.23V11.4s0-.93,0-1.21a16.62,16.62,0,0,1,.22-2.53,7.76,7.76,0,0,1,.74-2.24A7.09,7.09,0,0,1,3.53,3.53,7.59,7.59,0,0,1,5.42,2.15a7.89,7.89,0,0,1,2.23-.73,16.51,16.51,0,0,1,2.53-.22l1.22,0H150.14l1.23,0a16.26,16.26,0,0,1,2.51.22,8,8,0,0,1,2.26.74,7.55,7.55,0,0,1,3.26,3.26,8.08,8.08,0,0,1,.72,2.23,16.67,16.67,0,0,1,.23,2.55c0,.38,0,.79,0,1.2s0,1,0,1.47V41.13c0,.49,0,1,0,1.45s0,.84,0,1.25a16.27,16.27,0,0,1-.23,2.51,7.51,7.51,0,0,1-.73,2.25A7.38,7.38,0,0,1,158,50.46a7.12,7.12,0,0,1-1.89,1.38,7.83,7.83,0,0,1-2.25.74,16.38,16.38,0,0,1-2.52.22l-1.21,0H11.4Z"/></g><g id="_Group_" data-name=" Group "><g id="_Group_3" data-name=" Group 3"><path id="_Path_" data-name=" Path " class="cls-2" d="M33.44,27.41a6.69,6.69,0,0,1,3.18-5.61,6.83,6.83,0,0,0-5.39-2.91c-2.27-.24-4.46,1.35-5.62,1.35S22.66,18.91,20.74,19a7.18,7.18,0,0,0-6,3.68C12.09,27.15,14,33.8,16.54,37.45c1.25,1.79,2.71,3.79,4.63,3.72S23.74,40,26,40s2.89,1.2,4.85,1.15,3.27-1.79,4.48-3.6a14.78,14.78,0,0,0,2.05-4.18,6.42,6.42,0,0,1-3.94-5.93Z"/><path id="_Path_2" data-name=" Path 2" class="cls-2" d="M29.75,16.48a6.5,6.5,0,0,0,1.5-4.71A6.76,6.76,0,0,0,26.92,14a6.28,6.28,0,0,0-1.54,4.54,5.5,5.5,0,0,0,4.37-2.07Z"/></g><g id="Group-2" data-name="Group"><path id="Shape" class="cls-2" d="M57.11,36.64H50.72l-1.54,4.53h-2.7l6.05-16.76h2.81l6,16.76H58.64Zm-5.73-2.09h5.06L54,27.19h-.07Z"/><path id="Shape-2" data-name="Shape" class="cls-2" d="M74.47,35.06c0,3.8-2,6.24-5.11,6.24a4.15,4.15,0,0,1-3.84-2.14h-.06v6.05H63V29h2.43v2h.05a4.33,4.33,0,0,1,3.89-2.16C72.42,28.82,74.47,31.27,74.47,35.06Zm-2.58,0c0-2.48-1.28-4.1-3.23-4.1s-3.21,1.66-3.21,4.1,1.29,4.11,3.21,4.11S71.89,37.56,71.89,35.06Z"/><path id="Shape-3" data-name="Shape" class="cls-2" d="M87.92,35.06c0,3.8-2,6.24-5.1,6.24A4.16,4.16,0,0,1,79,39.16h-.06v6.05H76.4V29h2.43v2h0a4.33,4.33,0,0,1,3.89-2.16C85.87,28.82,87.92,31.27,87.92,35.06Zm-2.58,0c0-2.48-1.28-4.1-3.23-4.1s-3.21,1.66-3.21,4.1,1.29,4.11,3.21,4.11,3.23-1.61,3.23-4.11Z"/><path id="Path-2" data-name="Path" class="cls-2" d="M96.81,36.5c.19,1.66,1.8,2.75,4,2.75s3.63-1.09,3.63-2.59c0-1.3-.91-2.08-3.09-2.61l-2.17-.53c-3.08-.74-4.51-2.18-4.51-4.51,0-2.9,2.52-4.88,6.1-4.88s6,2,6.06,4.88H104.3c-.15-1.68-1.53-2.69-3.55-2.69s-3.41,1-3.41,2.51c0,1.19.89,1.88,3,2.42l1.84.45c3.44.81,4.87,2.2,4.87,4.65,0,3.13-2.5,5.1-6.47,5.1-3.72,0-6.23-1.92-6.39-5Z"/><path id="Path-3" data-name="Path" class="cls-2" d="M112.52,26.05V29h2.32v2h-2.32v6.74c0,1,.46,1.54,1.48,1.54.28,0,.56,0,.83-.06v2a6.53,6.53,0,0,1-1.39.12c-2.48,0-3.44-.93-3.44-3.3v-7h-1.78V29H110v-2.9Z"/><path id="Shape-4" data-name="Shape" class="cls-2" d="M116.19,35.06c0-3.85,2.26-6.26,5.79-6.26s5.8,2.41,5.8,6.26-2.24,6.26-5.8,6.26S116.19,38.92,116.19,35.06Zm9,0c0-2.64-1.21-4.2-3.25-4.2s-3.24,1.57-3.24,4.2S120,39.25,122,39.25s3.25-1.54,3.25-4.19Z"/><path id="Path-4" data-name="Path" class="cls-2" d="M129.85,29h2.39V31h.06a2.92,2.92,0,0,1,2.94-2.21,4.12,4.12,0,0,1,.86.09v2.35a3.55,3.55,0,0,0-1.13-.15,2.52,2.52,0,0,0-1.95.8,2.56,2.56,0,0,0-.66,2v7.25h-2.51Z"/><path id="Shape-5" data-name="Shape" class="cls-2" d="M147.67,37.58c-.34,2.22-2.5,3.74-5.26,3.74-3.56,0-5.77-2.38-5.77-6.2s2.22-6.32,5.66-6.32,5.51,2.32,5.51,6v.86h-8.63v.15a3.18,3.18,0,0,0,3.28,3.46,2.79,2.79,0,0,0,2.83-1.72Zm-8.48-3.65h6.11a2.94,2.94,0,0,0-3-3.1,3.09,3.09,0,0,0-3.11,3.1Z"/></g></g></g><g id="Group-3" data-name="Group"><path id="Shape-6" data-name="Shape" class="cls-2" d="M51.07,11.79a3.56,3.56,0,0,1,3.79,4c0,2.57-1.4,4.05-3.79,4.05H48.16v-8ZM49.41,18.7h1.52a2.5,2.5,0,0,0,2-.81,2.53,2.53,0,0,0,.64-2.08,2.54,2.54,0,0,0-2.65-2.88H49.41Z"/><path id="Shape-7" data-name="Shape" class="cls-2" d="M56.27,16.8a2.88,2.88,0,1,1,5.73,0,2.88,2.88,0,0,1-1.34,2.73,2.92,2.92,0,0,1-3,0A2.87,2.87,0,0,1,56.27,16.8Zm4.5,0c0-1.32-.59-2.09-1.63-2.09s-1.63.77-1.63,2.09.58,2.09,1.63,2.09,1.63-.77,1.63-2.09Z"/><polygon id="Path-5" data-name="Path" class="cls-2" points="69.62 19.84 68.38 19.84 67.12 15.37 67.03 15.37 65.78 19.84 64.54 19.84 62.87 13.76 64.08 13.76 65.17 18.4 65.26 18.4 66.51 13.76 67.67 13.76 68.92 18.4 69.01 18.4 70.09 13.76 71.29 13.76 69.62 19.84"/><path id="Path-6" data-name="Path" class="cls-2" d="M72.7,13.76h1.16v1H74a1.81,1.81,0,0,1,1.81-1.08,2,2,0,0,1,2.1,2.26v3.93H76.67V16.21c0-1-.43-1.46-1.32-1.46a1.38,1.38,0,0,0-1.45,1.54v3.55H72.7Z"/><polygon id="Path-7" data-name="Path" class="cls-2" points="79.78 11.39 80.98 11.39 80.98 19.84 79.78 19.84 79.78 11.39"/><path id="Shape-8" data-name="Shape" class="cls-2" d="M82.64,16.8a2.88,2.88,0,1,1,5.74,0,2.88,2.88,0,1,1-5.74,0Zm4.5,0c0-1.32-.59-2.09-1.63-2.09s-1.63.77-1.63,2.09.59,2.09,1.63,2.09,1.63-.77,1.63-2.09Z"/><path id="Shape-9" data-name="Shape" class="cls-2" d="M89.64,18.12c0-1.09.82-1.72,2.26-1.81l1.65-.1v-.52c0-.64-.43-1-1.25-1-.67,0-1.13.25-1.26.68H89.88c.12-1,1.1-1.71,2.48-1.71s2.38.75,2.38,2v4.15H93.59V19h-.1a2,2,0,0,1-1.82,1,1.84,1.84,0,0,1-2-1.82Zm3.91-.52v-.5l-1.49.09c-.83.06-1.21.34-1.21.88s.47.86,1.12.86A1.42,1.42,0,0,0,93,18.6,1.44,1.44,0,0,0,93.55,17.6Z"/><path id="Shape-10" data-name="Shape" class="cls-2" d="M96.32,16.8c0-1.92,1-3.14,2.52-3.14a2,2,0,0,1,1.87,1.07h.09V11.39H102v8.45h-1.15v-1h-.1a2.1,2.1,0,0,1-1.91,1.06C97.3,19.94,96.32,18.73,96.32,16.8Zm1.24,0c0,1.29.61,2.07,1.62,2.07s1.64-.79,1.64-2.06-.63-2.07-1.64-2.07-1.62.78-1.62,2.06Z"/><path id="Shape-11" data-name="Shape" class="cls-2" d="M107,16.8a2.88,2.88,0,1,1,5.73,0,2.88,2.88,0,0,1-1.34,2.73,2.92,2.92,0,0,1-3,0A2.89,2.89,0,0,1,107,16.8Zm4.5,0c0-1.32-.59-2.09-1.63-2.09s-1.63.77-1.63,2.09.59,2.09,1.63,2.09S111.46,18.12,111.46,16.8Z"/><path id="Path-8" data-name="Path" class="cls-2" d="M114.3,13.76h1.16v1h.09a1.81,1.81,0,0,1,1.81-1.08,2,2,0,0,1,1.6.62,2,2,0,0,1,.51,1.64v3.93h-1.2V16.21c0-1-.43-1.46-1.32-1.46a1.38,1.38,0,0,0-1.07.43,1.42,1.42,0,0,0-.38,1.11v3.55h-1.2Z"/><path id="Path-9" data-name="Path" class="cls-2" d="M126.25,12.25v1.54h1.31v1h-1.31v3.13c0,.63.26.91.86.91a3.4,3.4,0,0,0,.45,0v1a4.62,4.62,0,0,1-.65.07c-1.33,0-1.87-.47-1.87-1.65V14.8h-1v-1h1V12.25Z"/><path id="Path-10" data-name="Path" class="cls-2" d="M129.2,11.39h1.19v3.35h.1a1.86,1.86,0,0,1,1.85-1.09,2,2,0,0,1,2.09,2.27v3.92h-1.2V16.21c0-1-.45-1.46-1.3-1.46a1.41,1.41,0,0,0-1.12.42,1.37,1.37,0,0,0-.41,1.12v3.55h-1.2Z"/><path id="Shape-12" data-name="Shape" class="cls-2" d="M141.43,18.2A2.47,2.47,0,0,1,138.79,20a2.78,2.78,0,0,1-2.13-.92,2.73,2.73,0,0,1-.67-2.22,2.78,2.78,0,0,1,2.8-3.17c1.69,0,2.71,1.15,2.71,3.06v.42h-4.29v.07a1.57,1.57,0,0,0,.42,1.22,1.6,1.6,0,0,0,1.2.52,1.45,1.45,0,0,0,1.44-.74Zm-4.22-2h3.07a1.49,1.49,0,0,0-.4-1.12,1.46,1.46,0,0,0-1.1-.45,1.54,1.54,0,0,0-1.57,1.57Z"/></g></g></g></svg>