<?xml version="1.0" encoding="UTF-8"?>
<svg width="45px" height="45px" viewBox="0 0 45 45" version="1.1" xmlns="http://www.w3.org/2000/svg" xmlns:xlink="http://www.w3.org/1999/xlink">
    <title>ico_socmed_tiktok</title>
    <defs>
        <polygon id="path-1" points="0 0.00301548387 17.984868 0.00301548387 17.984868 18.9891124 0 18.9891124"></polygon>
        <polygon id="path-3" points="0.0194844294 0.0232421615 17.9832768 0.0232421615 17.9832768 20.9999976 0.0194844294 20.9999976"></polygon>
    </defs>
    <g id="symbol" stroke="none" stroke-width="1" fill="none" fill-rule="evenodd">
        <g id="Footer/B2C_updated" transform="translate(-1324.000000, -809.000000)">
            <g id="Group-4" transform="translate(0.000000, 312.000000)">
                <g id="Group-3" transform="translate(0.000000, 467.000000)">
                    <g id="socmed" transform="translate(940.000000, 30.000000)">
                        <g id="ico_socmed_tiktok" transform="translate(384.000000, 0.000000)">
                            <circle id="Oval-4" fill="#E8E8E8" cx="22.4262144" cy="22.4262144" r="22.4262144"></circle>
                            <g id="Group-9" transform="translate(13.000000, 11.000000)">
                                <g id="Group-3">
                                    <mask id="mask-2" fill="white">
                                        <use xlink:href="#path-1"></use>
                                    </mask>
                                    <g id="Clip-2"></g>
                                    <path d="M13.0200518,0.00301303226 C13.0189989,0.290440129 13.057205,0.599098194 13.1052635,0.880911097 L10.3214557,0.880911097 L10.3214557,14.4351188 C10.3214557,15.0599124 10.2558986,15.616355 10.1248596,16.1044466 C8.99123565,18.5479937 5.78149471,18.2286711 4.89455599,16.551915 C6.21507409,17.3604079 8.38633036,17.1457446 9.2773805,15.2265485 C9.4073415,14.7395111 9.47287354,14.1820143 9.47287354,13.5572208 L9.47287354,0.00301303226 L13.0200518,0.00301303226 Z M14.9137872,4.10203626 C15.6313304,4.66274465 16.6208039,5.07620916 17.984868,5.15522465 L17.984868,5.93393045 C16.4755504,5.6613111 15.5188429,4.92773948 14.9137872,4.10203626 L14.9137872,4.10203626 Z M2.17653092,18.9891124 C-2.365561,15.1346866 0.571973816,6.55310981 7.55509638,7.63282465 L7.55509638,8.42758852 C1.65766462,8.15935755 -0.938296379,15.0385588 2.17653092,18.9891124 L2.17653092,18.9891124 Z" id="Fill-1" fill="#00F7EF" mask="url(#mask-2)"></path>
                                </g>
                                <g id="Group-6" transform="translate(1.000000, 1.000000)">
                                    <mask id="mask-4" fill="white">
                                        <use xlink:href="#path-3"></use>
                                    </mask>
                                    <g id="Clip-5"></g>
                                    <path d="M13.0232378,0.0232421615 L13.0232378,0.0409001188 C13.0242893,0.360214846 13.1181196,4.97669822 17.9810737,5.26466259 C17.9810737,9.559412 17.9832768,5.26466259 17.9832768,8.83161983 C17.6179193,8.85319347 14.7823811,8.64907945 13.0177552,7.08113765 L13.0122976,14.0251044 C13.0559583,17.1694429 11.298993,20.2529013 8.00972462,20.8743716 C7.08814465,21.0482077 6.25836718,21.067811 4.86540751,20.7646329 C-3.15911266,18.3733015 -0.492609179,6.51628254 7.56475661,7.78518634 C7.56475661,11.6130973 7.56695967,7.7841139 7.56695967,11.6130973 C4.23841168,11.1252338 3.12491516,13.8838407 4.0093936,15.8590878 C4.81438665,17.6573063 8.12858971,18.0473027 9.28462031,15.5103431 C9.41550209,15.0138253 9.48096801,14.4477481 9.48096801,13.8121365 L9.48096801,0.0232421615 L13.0232378,0.0232421615 Z" id="Fill-4" fill="#000000" mask="url(#mask-4)"></path>
                                </g>
                                <path d="M14.2295579,1 L14.2295579,1.01767752 C14.2295579,1.20558861 14.262063,2.87436687 15.2333141,4.28052903 C14.0627468,3.30931387 13.6452856,1.90619783 13.4963642,1 L14.2295579,1 Z M18.1828951,6.14620695 C18.4377588,6.19487008 18.709453,6.22967583 18.9978812,6.24722851 C18.9978812,10.546737 19,6.24722851 19,9.81813835 C18.6486083,9.83973589 15.9214582,9.63539569 14.2242849,8.06571643 L14.2190359,15.0173779 C14.2610276,18.1652006 12.5712222,21.2520759 9.40768564,21.8742349 C8.52133295,22.0482636 7.72327362,22.0678886 6.38355966,21.7643745 C4.87532505,21.2966692 3.7615092,20.4657007 3,19.4421521 C3.67851295,20.0534249 4.53021766,20.5483456 5.56972937,20.8714099 C6.90797457,21.1737754 7.70634691,21.1541754 8.59265145,20.9801217 C11.7562121,20.3579627 13.4459935,17.2711124 13.4050852,14.1243882 L13.4093229,7.1716282 C15.106424,8.74130746 17.8335982,8.94677123 18.1860493,8.92390031 C18.1860493,5.60766667 18.1828951,9.07850374 18.1828951,6.14620695 L18.1828951,6.14620695 Z M8.16577579,8.68585297 C8.4299817,8.69783773 8.70177213,8.72487835 8.97972648,8.77054529 C8.97972648,12.602698 8.98184532,8.76947165 8.98184532,12.602698 C5.78053068,12.1142939 4.70959742,14.8759577 5.56026678,16.8533935 C5.57589329,16.8893228 5.59279592,16.9252272 5.61049311,16.959983 C5.22975055,16.7130969 4.923577,16.3737284 4.74540114,15.9593053 C3.89576712,13.9818445 4.96554464,11.2202307 8.16681113,11.7085848 C8.16681113,8.19637531 8.16577579,11.1190094 8.16577579,8.68585297 L8.16577579,8.68585297 Z" id="Fill-7" fill="#FF004F"></path>
                            </g>
                        </g>
                    </g>
                </g>
            </g>
        </g>
    </g>
</svg>