<?xml version="1.0" encoding="utf-8"?>
<!-- Generator: Adobe Illustrator 21.0.0, SVG Export Plug-In . SVG Version: 6.00 Build 0)  -->
<svg version="1.1" id="Layer_1" xmlns="http://www.w3.org/2000/svg" xmlns:xlink="http://www.w3.org/1999/xlink" x="0px" y="0px"
	 viewBox="0 0 40 40" style="enable-background:new 0 0 40 40;" xml:space="preserve">
<style type="text/css">
	.st0{fill:#ED1C24;}
	.st1{fill:#FFFFFF;}
</style>
<circle class="st0" cx="20" cy="20" r="20"/>
<title>Artboard 1 copy</title>
<g>
	<path class="st1" d="M25.7,22.4h-3.3c-0.3,0-0.5,0.2-0.5,0.5v3.3c0,0.3,0.2,0.5,0.5,0.5h3.3c0.3,0,0.5-0.2,0.5-0.5v-3.3
		C26.2,22.6,26,22.4,25.7,22.4z"/>
	<path class="st1" d="M31.5,17.5L30,9.9c0-0.2-0.2-0.4-0.5-0.4h-19c-0.2,0-0.4,0.2-0.5,0.4l-1.4,7.6c0,0.1,0,0.1,0,0.2s0,0.1,0,0.2
		c0,0.9,0.5,1.7,1.1,2.2v10c0,0.3,0.2,0.5,0.5,0.5h4.2h4.3H30c0.3,0,0.5-0.2,0.5-0.5V20c0.7-0.5,1.1-1.3,1.1-2.2L31.5,17.5z
		 M22.7,10.5h3.4v6.6h-3.4V10.5z M21.7,18.1c-0.1,0.8-0.8,1.5-1.7,1.5s-1.6-0.7-1.7-1.5H21.7z M13.9,10.5h3.4v6.6h-3.4V10.5z
		 M9.5,18.1h3.4c-0.1,0.8-0.8,1.5-1.7,1.5S9.6,18.9,9.5,18.1z M29.4,29.5H19.1v-6.7c0-0.3-0.2-0.5-0.5-0.5h-4.3
		c-0.3,0-0.5,0.2-0.5,0.5v6.7h-3.2v-9.1c0.2,0,0.4,0.1,0.6,0.1c0.9,0,1.7-0.5,2.2-1.1c0.5,0.7,1.3,1.1,2.2,1.1s1.7-0.5,2.2-1.1
		c0.5,0.7,1.3,1.1,2.2,1.1s1.7-0.5,2.2-1.1c0.5,0.7,1.3,1.1,2.2,1.1c0.9,0,1.7-0.5,2.2-1.2c0.5,0.7,1.3,1.2,2.2,1.2
		c0.2,0,0.4,0,0.6-0.1C29.4,20.4,29.4,29.5,29.4,29.5z M28.8,19.6c-0.9,0-1.6-0.7-1.7-1.5h3.4C30.4,18.9,29.7,19.6,28.8,19.6z"/>
</g>
</svg>
