<?xml version="1.0" encoding="UTF-8"?>
<svg width="45px" height="45px" viewBox="0 0 45 45" version="1.1" xmlns="http://www.w3.org/2000/svg" xmlns:xlink="http://www.w3.org/1999/xlink">
    <!-- Generator: sketchtool 62 (101010) - https://sketch.com -->
    <title>E56196F3-1FFE-4EBC-8839-4B306ABF312F</title>
    <desc>Created with sketchtool.</desc>
    <g id="symbol" stroke="none" stroke-width="1" fill="none" fill-rule="evenodd">
        <g id="MOBILE/SUB_FOOTER" transform="translate(-189.000000, -885.000000)">
            <g id="FOOTER_MOBILE" transform="translate(0.000000, 342.000000)">
                <g id="footer">
                    <g id="Group-3" transform="translate(0.000000, 492.000000)">
                        <g id="Group-11">
                            <g id="Group-7" transform="translate(70.000000, 15.000000)">
                                <g id="socmed" transform="translate(0.000000, 35.400000)">
                                    <g id="Group-21" transform="translate(119.000000, 0.700000)">
                                        <circle id="Oval-4" fill="#6DC4EB" cx="22.3265423" cy="22.3265423" r="22.3265423"></circle>
                                        <path d="M19.3819043,28.672 C24.9323989,28.672 27.9692858,24.0746206 27.9692858,20.0846185 C27.9692858,19.9537988 27.9692858,19.822979 27.9599415,19.6921593 C28.5486303,19.262323 29.062565,18.7296998 29.4737128,18.1316667 C28.9317453,18.3652733 28.3430564,18.5334702 27.7356791,18.59888 C28.361745,18.2251093 28.8383026,17.6364205 29.062565,16.9356005 C28.4832204,17.2813384 27.8291217,17.5336336 27.1469902,17.6644533 C26.5956785,17.0757645 25.81076,16.7113381 24.9417432,16.7113381 C23.2691194,16.7113381 21.9235449,18.0662568 21.9235449,19.7295363 C21.9235449,19.963143 21.9515777,20.1967497 21.9982991,20.4210121 C19.4940355,20.2901924 17.2607556,19.0941262 15.7750171,17.2626498 C15.5133777,17.7111746 15.3638694,18.2251093 15.3638694,18.7857654 C15.3638694,19.8323233 15.8964926,20.7574057 16.7094439,21.2993732 C16.2141977,21.2806847 15.7469843,21.1405207 15.3451809,20.9162583 L15.3451809,20.9536353 L15.3451809,20.9536353 C15.3451809,22.4206853 16.3823945,23.63544 17.765346,23.915768 C17.5130508,23.9811779 17.2420671,24.018555 16.9710833,24.018555 C16.7748537,24.018555 16.5879684,23.9998664 16.401083,23.9718336 C16.784198,25.1678998 17.8961658,26.0369167 19.2230517,26.0649495 C18.1858381,26.8779007 16.8869849,27.3544583 15.4760006,27.3544583 C15.2237054,27.3544583 14.9900987,27.3451141 14.7471478,27.3170813 C16.083378,28.1767538 17.6719034,28.672 19.3819043,28.672 Z" id="" fill="#FFFFFF" fill-rule="nonzero"></path>
                                    </g>
                                </g>
                            </g>
                        </g>
                    </g>
                </g>
            </g>
        </g>
    </g>
</svg>