<?xml version="1.0" encoding="UTF-8"?>
<svg width="46px" height="46px" viewBox="0 0 46 46" version="1.1" xmlns="http://www.w3.org/2000/svg" xmlns:xlink="http://www.w3.org/1999/xlink">
    <!-- Generator: sketchtool 62 (101010) - https://sketch.com -->
    <title>8652568A-E9B5-4461-A0E5-CD3F2CD9A58F</title>
    <desc>Created with sketchtool.</desc>
    <g id="symbol" stroke="none" stroke-width="1" fill="none" fill-rule="evenodd">
        <g id="MOBILE/SUB_FOOTER" transform="translate(-248.000000, -884.000000)">
            <g id="FOOTER_MOBILE" transform="translate(0.000000, 342.000000)">
                <g id="footer">
                    <g id="Group-3" transform="translate(0.000000, 492.000000)">
                        <g id="Group-11">
                            <g id="Group-7" transform="translate(70.000000, 15.000000)">
                                <g id="socmed" transform="translate(0.000000, 35.400000)">
                                    <g id="Group-21" transform="translate(178.500000, 0.000000)">
                                        <circle id="Oval-4" fill="#E03E3E" cx="22.3265423" cy="22.3265423" r="22.3265423"></circle>
                                        <path d="M27.3726522,28.4010163 C27.6997015,28.3636392 28.4192101,28.3636392 29.0546203,27.7001962 C29.0546203,27.7001962 29.568555,27.1862615 29.7180632,26.0369167 C29.8600961,24.9529817 29.8825223,23.8690467 29.8858115,23.4788301 L29.8858115,21.904508 C29.8825223,21.5142914 29.8600961,20.4303564 29.7180632,19.3464214 C29.568555,18.1877323 29.0546203,17.6831418 29.0546203,17.6831418 C28.4192101,17.0103546 27.6997015,17.0103546 27.3726522,16.9729775 C27.3726522,16.9729775 25.0365854,16.8047807 21.5137967,16.8047807 C17.991008,16.8047807 15.6549412,16.9729775 15.6549412,16.9729775 C15.3278918,17.0103546 14.6083833,17.0103546 13.9729731,17.6831418 C13.9729731,17.6831418 13.4590384,18.1877323 13.3095301,19.3464214 C13.1674973,20.4303564 13.145071,21.5142914 13.1417819,21.904508 L13.1417819,23.4788301 C13.145071,23.8690467 13.1674973,24.9529817 13.3095301,26.0369167 C13.4590384,27.1862615 13.9729731,27.7001962 13.9729731,27.7001962 C14.6083833,28.3636392 15.4493673,28.3449507 15.823138,28.4103605 C15.823138,28.4103605 17.1593682,28.5411803 21.5137967,28.5785573 C25.0365854,28.5785573 27.3726522,28.4010163 27.3726522,28.4010163 Z M19.7851073,24.859539 L19.7851073,20.1593726 L24.3077326,22.5234722 L19.7851073,24.859539 Z" id="" fill="#FFFFFF" fill-rule="nonzero"></path>
                                    </g>
                                </g>
                            </g>
                        </g>
                    </g>
                </g>
            </g>
        </g>
    </g>
</svg>